<?xml version="1.0" encoding="iso-8859-1"?>
<!-- Generator: Adobe Illustrator 16.0.0, SVG Export Plug-In . SVG Version: 6.00 Build 0)  -->
<!DOCTYPE svg PUBLIC "-//W3C//DTD SVG 1.1//EN" "http://www.w3.org/Graphics/SVG/1.1/DTD/svg11.dtd">
<svg xmlns="http://www.w3.org/2000/svg" xmlns:xlink="http://www.w3.org/1999/xlink" version="1.1" id="Capa_1" x="0px" y="0px" width="512px" height="512px" viewBox="0 0 478.889 478.889" style="enable-background:new 0 0 478.889 478.889;" xml:space="preserve">
<g>
	<path d="M474.416,336.052h-43.799c-3.484-5.428-12.074-23.395,11.242-42.497c1.49-1.22,2.031-3.257,1.344-5.057   c-0.686-1.802-2.459-2.972-4.371-2.879c-1.506,0.062-35.461,1.841-54.74,31.744c-1.5-1.134-3.082-2.214-4.709-3.244   c-3.869-30.129-5.521-80.096,19.076-110.018c1.141-1.384,1.34-3.312,0.518-4.903c-0.824-1.591-2.516-2.543-4.307-2.405   c-1.246,0.093-30.936,2.479-61.795,21.326c-6.545,3.999-13.414,8.958-20.154,15.035c-4.035-8.763-8.521-17.181-13.52-25.195   c-18.291-29.346-42.98-53.641-73.382-72.208c-51.662-31.551-101.243-35.537-103.327-35.69c-1.805-0.145-3.534,0.845-4.343,2.479   c-0.809,1.632-0.548,3.592,0.662,4.956c18.369,20.731,27.369,53.002,31.184,86.959c-0.046-0.028-0.092-0.058-0.137-0.085   c-36.857-22.51-72.281-25.357-73.771-25.468c-1.793-0.142-3.48,0.813-4.307,2.404c-0.824,1.591-0.623,3.52,0.517,4.904   c20.643,25.111,25.981,61.898,25.76,94.196c-20.806-9.95-43.931-11.781-58.014-11.781c-9.709,0-16.053,0.818-16.321,0.854   c-1.628,0.217-3.01,1.304-3.597,2.839c-0.589,1.533-0.287,3.266,0.781,4.514c31.862,37.174,35.576,60.823,35.714,69.218H4.477   c-2.473,0-4.477,2.006-4.477,4.478v33.839c0,2.472,2.004,4.477,4.477,4.477H474.41c2.475,0,4.479-2.005,4.479-4.477v-33.839   C478.893,338.057,476.889,336.052,474.416,336.052z M385.947,328.621c1.383-0.217,2.582-1.066,3.244-2.297   c9.564-17.725,25.289-25.591,36.555-29.062c-11.945,15.703-8.814,30.38-5.113,38.789h-45.475   c-0.779-4.138-2.865-10.706-8.369-18.742c5.529,2.761,11.279,6.207,15.369,10.12C383.166,328.398,384.564,328.833,385.947,328.621z    M337.236,225.951c18.553-11.399,37.002-16.479,47.977-18.668c-18.822,30.397-18.725,72.49-15.6,101.44   c-8.863-4.32-16.711-6.854-17.27-7.032c-1.99-0.634-4.16,0.191-5.221,1.996c-1.059,1.804-0.73,4.101,0.793,5.53   c12.609,11.853,16.736,21.6,18.086,26.834h-28.953c-2.084-34.707-8.982-66.274-20.58-94.315   C322.701,235.905,329.615,230.633,337.236,225.951z M221.154,143.395c65.612,40.072,101.583,104.879,106.958,192.657H153.745   c4.668-28.614,23.238-161.25-21.309-225.646C149.589,113.254,185.154,121.409,221.154,143.395z M85.634,179.313   c12.838,2.378,36.056,8.345,59.558,22.699c2.007,1.225,3.963,2.494,5.885,3.788c4.512,56.827-4.002,115.276-6.429,130.252H99.983   C104.771,313.748,119.297,231.25,85.634,179.313z M33.291,267.724c1.975-0.086,4.247-0.144,6.756-0.144   c16.629,0,38.993,2.389,57.782,12.587c-1.051,26.04-5.276,47.79-7.032,55.885H65.585C65.474,326.059,61.479,302.771,33.291,267.724   z M469.938,369.888H8.958v-24.882h51.837h33.574h44.285h9.782h76.547h45.697h62.16h38.287h8.369h0.029h48.789h41.623V369.888   L469.938,369.888z" fill="#f75749"/>
</g>
<g>
</g>
<g>
</g>
<g>
</g>
<g>
</g>
<g>
</g>
<g>
</g>
<g>
</g>
<g>
</g>
<g>
</g>
<g>
</g>
<g>
</g>
<g>
</g>
<g>
</g>
<g>
</g>
<g>
</g>
</svg>
